<svg width="20" height="20" viewBox="0 0 20 20" fill="none" xmlns="http://www.w3.org/2000/svg">
<path fill-rule="evenodd" clip-rule="evenodd" d="M18 9.49999C18 4.06978 12.0662 0.309836 7.15088 2.79259L7.14709 2.7945L7.14709 2.7945C3.52862 4.60295 1.95647 9.21393 3.79263 12.8491C3.91284 13.0871 3.93303 13.3633 3.84871 13.6162L2.58117 17.4189L6.3838 16.1513C6.63674 16.067 6.91289 16.0872 7.15088 16.2074C12.0075 18.6605 18.0139 14.841 18 9.5026L18 9.49999ZM20 9.49887C19.9992 2.61378 12.5263 -2.16148 6.25106 1.00644C1.78432 3.24014 -0.223921 8.79563 1.82401 13.3658L0.0513438 18.6838C-0.0684344 19.0431 0.0250881 19.4393 0.29292 19.7071C0.560753 19.9749 0.95692 20.0685 1.31625 19.9487L6.63399 18.1761C12.7713 20.9323 20.0163 16.1596 20 9.49887Z" fill="#2C323A"/>
</svg>
