<svg width="16" height="16" viewBox="0 0 16 16" fill="none" xmlns="http://www.w3.org/2000/svg">
<path fill-rule="evenodd" clip-rule="evenodd" d="M3.33337 4.66667C3.15656 4.66667 2.98699 4.7369 2.86197 4.86193C2.73695 4.98695 2.66671 5.15652 2.66671 5.33333V12.6667C2.66671 12.8435 2.73695 13.013 2.86197 13.1381C2.98699 13.2631 3.15656 13.3333 3.33337 13.3333H10.6667C10.8435 13.3333 11.0131 13.2631 11.1381 13.1381C11.2631 13.013 11.3334 12.8435 11.3334 12.6667V8.66667C11.3334 8.29848 11.6319 8 12 8C12.3682 8 12.6667 8.29848 12.6667 8.66667V12.6667C12.6667 13.1971 12.456 13.7058 12.0809 14.0809C11.7058 14.456 11.1971 14.6667 10.6667 14.6667H3.33337C2.80294 14.6667 2.29423 14.456 1.91916 14.0809C1.54409 13.7058 1.33337 13.1971 1.33337 12.6667V5.33333C1.33337 4.8029 1.54409 4.29419 1.91916 3.91912C2.29423 3.54405 2.80294 3.33333 3.33337 3.33333H7.33337C7.70156 3.33333 8.00004 3.63181 8.00004 4C8.00004 4.36819 7.70156 4.66667 7.33337 4.66667H3.33337Z" fill="#78808D"/>
<path fill-rule="evenodd" clip-rule="evenodd" d="M9.33337 2C9.33337 1.63181 9.63185 1.33333 10 1.33333H14C14.3682 1.33333 14.6667 1.63181 14.6667 2V6C14.6667 6.36819 14.3682 6.66667 14 6.66667C13.6319 6.66667 13.3334 6.36819 13.3334 6V2.66667H10C9.63185 2.66667 9.33337 2.36819 9.33337 2Z" fill="#78808D"/>
<path fill-rule="evenodd" clip-rule="evenodd" d="M14.4714 1.52859C14.7318 1.78894 14.7318 2.21105 14.4714 2.4714L7.13811 9.80474C6.87776 10.0651 6.45565 10.0651 6.1953 9.80474C5.93495 9.54439 5.93495 9.12228 6.1953 8.86193L13.5286 1.52859C13.789 1.26824 14.2111 1.26824 14.4714 1.52859Z" fill="#78808D"/>
</svg>
