<svg width="15" height="8" viewBox="0 0 15 8" fill="none" xmlns="http://www.w3.org/2000/svg">
<path d="M2.29348 1.30979V3.80979H3.70652C4.11957 3.80979 4.44022 3.69928 4.66848 3.47826C4.90036 3.25725 5.0163 2.95109 5.0163 2.55979C5.0163 2.17935 4.89674 1.87681 4.65761 1.65218C4.41848 1.42392 4.09601 1.30979 3.69022 1.30979H2.29348ZM2.29348 5V7.86957H0.652174V0.0271764H3.86413C4.75906 0.0271764 5.45471 0.250003 5.95109 0.695655C6.45109 1.13768 6.70109 1.74819 6.70109 2.52718C6.70109 3.03805 6.57428 3.49457 6.32065 3.89674C6.07065 4.29529 5.72283 4.58152 5.27717 4.75544L6.92935 7.86957H5.07065L3.6087 5H2.29348ZM9.77174 0.0271764V4.93479C9.77174 5.44565 9.91486 5.85145 10.2011 6.15218C10.4909 6.44928 10.8967 6.59783 11.4185 6.59783C11.9366 6.59783 12.3388 6.44928 12.625 6.15218C12.9149 5.85145 13.0598 5.44565 13.0598 4.93479V0.0271764H14.7011V5.09783C14.7011 5.96739 14.4022 6.67029 13.8043 7.20652C13.2101 7.73913 12.4149 8.00544 11.4185 8.00544C10.4185 8.00544 9.61957 7.73913 9.02174 7.20652C8.42754 6.67029 8.13043 5.96739 8.13043 5.09783V0.0271764H9.77174Z" fill="#2C323A"/>
</svg>
